<?xml version="1.0" encoding="utf-8"?>
<!-- Generator: Adobe Illustrator 25.0.0, SVG Export Plug-In . SVG Version: 6.00 Build 0)  -->
<svg version="1.1" id="Layer_1" xmlns="http://www.w3.org/2000/svg" xmlns:xlink="http://www.w3.org/1999/xlink" x="0px" y="0px"
	 viewBox="0 0 320 500" style="enable-background:new 0 0 320 500;" xml:space="preserve">
<style type="text/css">
	.st0{fill:#0E838E;}
	.st1{fill:#FFFFFF;}
</style>
<g>
	<path class="st0" d="M258.91,237.16c0,43.1,0,86.2,0,129.31c0,4.56-1.68,6.24-6.22,6.24c-4.09,0-8.19-0.02-12.28,0.02
		c-1.02,0.01-1.64-0.27-2.08-1.24c-1.89-4.17-3.81-8.33-5.77-12.47c-0.63-1.33-0.21-1.69,1.13-1.66c2.62,0.05,5.25-0.12,7.86,0.07
		c1.82,0.13,2.27-0.56,2.03-2.16c-0.04-0.25-0.01-0.51-0.01-0.77c0-78.47-0.01-156.93,0.05-235.4c0-1.85-0.42-2.29-2.28-2.29
		c-40.54,0.06-81.09,0.05-121.63,0.05c-2.78,0-3.92,1.12-3.92,3.85c0,9.91,0,19.82,0,29.74c0,3.98-1.6,5.61-5.52,5.62
		c-10.04,0.01-20.08,0-30.12,0.01c-2.32,0-3.72,1.43-3.72,3.79c0,65.1,0.01,130.2-0.05,195.3c0,1.91,0.55,2.26,2.34,2.26
		c23.15-0.06,46.3-0.04,69.45-0.04c2.64,0,2.64,0,1.51,2.47c-1.73,3.76-3.5,7.5-5.18,11.28c-0.5,1.13-1.11,1.62-2.42,1.61
		c-25.07-0.04-50.13-0.03-75.2-0.04c-3.94,0-5.78-1.83-5.78-5.72c0-70.73,0-141.46-0.01-212.18c0-1.96,0.63-3.55,2.04-4.95
		c15.49-15.44,30.95-30.91,46.39-46.39c1.35-1.36,2.84-1.96,4.77-1.96c46.23,0.03,92.47,0.02,138.7,0.02c4.17,0,5.91,1.75,5.91,5.94
		C258.91,150.7,258.91,193.93,258.91,237.16z"/>
	<path class="st0" d="M180.99,274.22c0.76-5.67,4.3-9.18,9.14-9.24c5.04-0.06,8.55,3.27,9.55,9.26c1.76-2.72,4.16-4.27,7.23-4.59
		c2.24-0.23,4.3,0.4,6.13,1.71c3.83,2.74,4.93,7.7,2.56,12.1c5.67-2.11,10.35-1.25,13.18,4.37c2.04,4.06,0.79,7.84-3.64,11.9
		c2.58,0.19,4.76,1.01,6.51,2.79c1.79,1.83,2.69,4.05,2.68,6.56c-0.02,4.77-3,7.78-9.16,9.3c1.88,1.37,3.33,2.96,4,5.15
		c0.68,2.23,0.71,4.45-0.33,6.52c-2.74,5.43-7.23,6.49-12.97,4.58c1.21,2.99,1.4,5.69,0.15,8.38c-0.89,1.93-2.3,3.37-4.18,4.31
		c-4.23,2.13-8.42,0.93-12.22-3.54c-0.29,2.68-1.14,5.01-3.11,6.77c-2,1.79-4.36,2.53-7.05,2.33c-4.53-0.33-7.8-3.75-8.45-9.21
		c-1.59,2.17-3.38,3.78-5.88,4.34c-2.53,0.57-4.93,0.25-7.16-1.16c-3.86-2.44-4.97-6.29-3.37-12.25c-3.36,1.3-6.56,1.41-9.55-0.6
		c-1.64-1.1-2.81-2.58-3.49-4.43c-1.52-4.13-0.17-8.14,4.02-11.28c-2.83-0.34-5.23-1.18-6.97-3.24c-1.76-2.09-2.67-4.51-2.21-7.26
		c0.79-4.76,4.03-7.66,9.12-8.02c-4.71-3.94-6.2-8.5-2.65-13.74c2.45-3.61,6.37-4.41,11.61-2.77c-1.01-7.58,0.25-10.97,4.78-12.9
		C173.47,268.6,177.57,269.88,180.99,274.22z"/>
	<path class="st0" d="M160.03,224.6c-21.35,0-42.7,0-64.04,0c-0.96,0-1.92,0.05-2.83-0.31c-1.72-0.68-2.64-1.93-2.66-3.8
		c-0.02-1.88,0.92-3.13,2.61-3.84c0.9-0.38,1.87-0.32,2.83-0.32c42.7,0,85.39,0,128.09,0.01c0.82,0,1.64-0.05,2.47,0.2
		c1.88,0.57,3.02,2,3.02,3.91c0,1.95-1.1,3.35-2.98,3.94c-0.82,0.26-1.64,0.21-2.47,0.21C202.73,224.61,181.38,224.6,160.03,224.6z"
		/>
	<path class="st0" d="M160.02,248.01c-21.54,0-43.09,0-64.63,0c-2.98,0-4.73-1.35-4.88-3.71c-0.14-2.21,1.01-3.82,3.17-4.35
		c0.67-0.16,1.39-0.2,2.08-0.2c42.83-0.01,85.66-0.01,128.49-0.01c3.23,0,5.08,1.35,5.25,3.79c0.17,2.55-1.51,4.44-4.08,4.48
		c-2.43,0.04-4.86-0.01-7.29-0.01C198.76,248.01,179.39,248.01,160.02,248.01z"/>
	<path class="st0" d="M160.22,192.93c21.48,0,42.95,0,64.43,0c3.2,0,4.98,1.6,4.87,4.31c-0.07,1.83-1.22,3.27-3.03,3.68
		c-0.8,0.18-1.64,0.27-2.46,0.27c-42.76,0.01-85.52,0.01-128.28,0c-3.41,0-5.25-1.48-5.25-4.19c0-2.06,1.28-3.6,3.39-3.98
		c0.62-0.11,1.27-0.09,1.91-0.09C117.27,192.93,138.74,192.93,160.22,192.93z"/>
	<path class="st0" d="M239.32,386.75c-0.2,1.18-0.57,2.07-1.59,2.6c-1.09,0.57-2.08,0.41-3.05-0.25c-2.59-1.74-5.19-3.47-7.79-5.2
		c-3.19-2.12-5.17-1.16-5.53,2.62c-0.3,3.11-0.74,6.21-1.1,9.31c-0.17,1.46-0.99,2.37-2.39,2.61c-1.41,0.24-2.44-0.41-3.06-1.74
		c-6.12-13.22-12.24-26.43-18.37-39.64c-0.42-0.9-0.38-1.58,0.55-2.08c0.11-0.06,0.22-0.13,0.33-0.2c4.19-2.94,4.19-2.96,9.39-2.67
		c4.84,0.27,8.69-1.54,11.61-5.39c1.27-1.68,1.87-1.63,2.75,0.27c5.89,12.69,11.76,25.39,17.63,38.08
		C238.96,385.65,239.14,386.27,239.32,386.75z"/>
	<path class="st0" d="M159.98,177.56c-21.6,0-43.21,0-64.81,0c-2.95,0-4.6-1.38-4.67-3.87c-0.07-2.28,1.5-4.04,3.78-4.24
		c0.38-0.03,0.77-0.01,1.15-0.01c43.08,0,86.15,0,129.23,0c2.93,0,4.7,1.38,4.85,3.74c0.17,2.59-1.48,4.36-4.15,4.38
		c-3.83,0.03-7.67,0-11.5,0C195.89,177.56,177.93,177.56,159.98,177.56z"/>
	<path class="st0" d="M146.32,389.69c-2.24,0.05-3.49-2.08-2.45-4.36c2.23-4.92,4.52-9.81,6.79-14.72
		c3.34-7.21,6.68-14.43,10.03-21.64c1-2.16,1.34-2.21,3.05-0.6c3.93,3.69,8.5,4.72,13.59,2.95c1.35-0.47,2.18-0.38,3.05,0.84
		c1.08,1.52,2.61,2.64,4.34,3.35c1.36,0.56,1.65,1.28,1.01,2.65c-5.93,12.74-11.82,25.5-17.71,38.26c-0.66,1.42-1.67,2.31-3.3,1.99
		c-1.6-0.31-2.23-1.49-2.39-3.05c-0.34-3.23-0.73-6.46-1.13-9.69c-0.33-2.67-2.42-3.7-4.67-2.25c-2.73,1.75-5.41,3.6-8.11,5.4
		C147.77,389.27,147.15,389.73,146.32,389.69z"/>
	<path class="st0" d="M128.55,263.37c11.18,0,22.37,0.01,33.55,0c1.17,0,2.41-0.11,2.76,1.38c0.32,1.35-0.74,1.89-1.64,2.5
		c-0.53,0.36-1.15,0.63-1.57,1.08c-2.78,2.95-6.23,3.27-10.09,3.24c-18.79-0.15-37.58-0.07-56.37-0.07c-2.76,0-4.53-1.42-4.69-3.71
		c-0.2-2.73,1.49-4.41,4.49-4.41C106.18,263.37,117.36,263.37,128.55,263.37z"/>
	<path class="st0" d="M121.53,341.79c-8.75,0-17.5,0-26.25,0c-3.09,0-4.75-1.37-4.8-3.93c-0.04-2.62,1.74-4.18,4.8-4.19
		c16.54,0,33.08,0.01,49.62-0.03c1.5,0,2.56,0.36,3.25,1.76c0.45,0.91,1.09,1.72,1.69,2.54c0.64,0.88,1.42,1.74,0.83,2.93
		c-0.58,1.15-1.71,0.91-2.71,0.91C139.16,341.79,130.35,341.79,121.53,341.79z"/>
	<path class="st0" d="M118.59,286.78c7.79,0,15.59-0.01,23.38,0c2.58,0,3.23,0.94,2.28,3.32c-2.22,5.52-0.63,4.78-6.92,4.79
		c-14.12,0.03-28.24,0.01-42.35,0c-2.74,0-4.42-1.48-4.48-3.88c-0.07-2.55,1.6-4.22,4.33-4.23
		C102.75,286.77,110.67,286.78,118.59,286.78z"/>
	<path class="st0" d="M116.65,318.38c-7.16,0-14.31,0.01-21.47,0c-3,0-4.68-1.49-4.69-4.08c-0.01-2.55,1.71-4.04,4.71-4.04
		c14.19,0,28.37,0,42.56,0c2.41,0,2.83,0.41,3.01,2.88c0.05,0.7,0.05,1.41,0.15,2.1c0.36,2.6-0.1,3.14-2.79,3.14
		C130.96,318.38,123.81,318.38,116.65,318.38z"/>
	<path class="st0" d="M191.33,372.71c-1.53,0-3.06,0-4.59,0c-1.11,0-1.75-0.2-1.12-1.56c1.64-3.5,3.2-7.04,4.8-10.56
		c0.18-0.38,0.29-0.89,0.86-0.9c0.56,0,0.7,0.49,0.88,0.88c1.62,3.51,3.22,7.04,4.86,10.54c0.58,1.25,0.1,1.61-1.11,1.59
		C194.39,372.69,192.86,372.71,191.33,372.71z"/>
	<path class="st1" d="M190.29,339.13c-16.64,0.02-30.26-13.58-30.21-30.17c0.04-16.64,13.61-30.16,30.27-30.16
		c16.63,0,30.25,13.62,30.22,30.21C220.53,325.65,207,339.11,190.29,339.13z"/>
	<path class="st0" d="M167.3,308.8c0.05-12.68,10.43-22.87,23.2-22.78c12.73,0.08,22.91,10.41,22.83,23.15
		c-0.08,12.58-10.45,22.89-23.01,22.87C177.58,332.03,167.24,321.6,167.3,308.8z"/>
</g>
</svg>
