<?xml version="1.0" encoding="utf-8"?>
<!-- Generator: Adobe Illustrator 25.0.0, SVG Export Plug-In . SVG Version: 6.00 Build 0)  -->
<svg version="1.1" id="Layer_1" xmlns="http://www.w3.org/2000/svg" xmlns:xlink="http://www.w3.org/1999/xlink" x="0px" y="0px"
	 viewBox="0 0 320 500" style="enable-background:new 0 0 320 500;" xml:space="preserve">
<style type="text/css">
	.st0{fill:#0E838E;}
</style>
<g>
	<path class="st0" d="M156.59,238.89c-5.9,0.3-11.63-1.87-17.41-3.79c-30.59-10.17-61.18-20.37-91.77-30.56
		c-1.95-0.65-3.87-1.36-5.42-2.77c-1.84-1.67-1.8-3.48,0.09-5.11c1.63-1.4,3.59-2.18,5.61-2.78c32.63-9.8,65.28-19.56,97.9-29.39
		c8.49-2.56,16.75-1.83,25.14,0.72c31.7,9.64,63.47,19.1,95.21,28.62c1.91,0.57,3.79,1.25,5.39,2.49c2.5,1.94,2.44,4.09-0.11,5.96
		c-1.36,1-2.88,1.65-4.45,2.18c-32.64,10.85-65.28,21.69-97.92,32.52C164.99,238.27,161.03,239,156.59,238.89z"/>
	<path class="st0" d="M86.31,227.02c4.41,1.46,8.7,2.87,12.99,4.29c15.14,5.04,30.28,10.06,45.41,15.12
		c8.94,2.99,17.7,2.36,26.54-0.65c18.19-6.2,36.45-12.17,54.66-18.29c1.5-0.51,1.78-0.24,1.78,1.32
		c-0.06,14.06-0.09,28.11,0.01,42.17c0.02,2.95-0.99,5.26-2.93,7.32c-3.8,4.02-8.5,6.74-13.41,9.07
		c-10.83,5.14-22.3,8.11-34.13,9.84c-9.27,1.35-18.58,1.79-27.91,1.26c-18.13-1.03-35.64-4.62-51.69-13.6
		c-3.49-1.96-6.75-4.27-9.31-7.42c-1.37-1.69-2.11-3.54-2.1-5.79c0.05-14.39,0.03-28.78,0.04-43.17
		C86.24,228.06,86.28,227.63,86.31,227.02z"/>
	<path class="st0" d="M259.92,233.35c0,5.05,0.01,10.11-0.01,15.16c0,0.86,0.19,1.6,0.59,2.36c2.23,4.2,4.19,8.51,5.65,13.06
		c2.15,6.7,0.28,12.19-4.68,16.84c-1.01,0.95-2.07,1.87-3.22,2.63c-3.7,2.42-2.49,2.54-6.21-0.07c-4.07-2.85-7.42-6.36-8.51-11.46
		c-0.65-3.04,0.06-5.95,0.96-8.81c1.3-4.13,3.12-8.03,5.18-11.82c0.55-1.01,0.79-2.01,0.79-3.16c-0.03-9,0.02-17.99-0.06-26.99
		c-0.01-1.37,0.42-1.93,1.7-2.28c2.18-0.59,4.33-1.33,6.45-2.12c1.15-0.43,1.41-0.2,1.4,1
		C259.89,222.91,259.92,228.13,259.92,233.35z"/>
</g>
</svg>
