<?xml version="1.0" encoding="utf-8"?>
<!-- Generator: Adobe Illustrator 25.0.0, SVG Export Plug-In . SVG Version: 6.00 Build 0)  -->
<svg version="1.1" id="Layer_1" xmlns="http://www.w3.org/2000/svg" xmlns:xlink="http://www.w3.org/1999/xlink" x="0px" y="0px"
	 viewBox="0 0 320 500" style="enable-background:new 0 0 320 500;" xml:space="preserve">
<style type="text/css">
	.st0{fill:#0E838E;}
	.st1{fill:#FFFFFF;}
</style>
<g>
	<path class="st0" d="M233.9,208.08c1.97,2.47,3.34,5.21,4.01,8.31c0.2,0.91,0.64,1.77,0.96,2.65c0.22,0.61,0.63,0.81,1.28,0.81
		c2.67-0.03,5.35-0.01,8.02,0c0.82,0,1.38-0.15,0.92-1.15c-0.44-0.93,0-1.71,0.4-2.52c6.8-13.55,13.59-27.11,20.38-40.67
		c0.47-0.94,0.91-1.9,1.4-2.83c0.58-1.08,1.41-1.88,2.68-1.18c1.24,0.68,0.85,1.78,0.35,2.77c-4.35,8.69-8.71,17.37-13.07,26.06
		c-2.74,5.46-5.48,10.91-8.21,16.36c-0.29,0.58-0.58,1.1-0.36,1.86c0.58,1.99-0.06,3.57-1.85,4.46c-0.82,0.41-1.27,0.81-1.07,1.73
		c0.18,0.86-0.41,1.44-1,2.4c2.72,0,5.18,0.09,7.62-0.04c1.41-0.07,1.77,0.36,1.73,1.73c-0.1,3.29-0.03,3.29-3.28,3.29
		c-1.62,0-3.23,0.04-4.85-0.02c-0.81-0.03-1.09,0.25-1.03,1.04c0.06,0.83,0.01,1.67,0.01,2.51c0,45.85-0.01,91.69,0.04,137.54
		c0,1.54-0.45,1.78-1.84,1.77c-20.78-0.05-41.56-0.05-62.34,0.01c-1.5,0-1.79-0.39-1.78-1.82c0.05-30.41,0.03-60.83,0.03-91.27
		c-0.74-0.03-0.69,0.66-0.88,1.02c-5.83,10.96-10.47,22.42-14.4,34.18c-0.42,1.26-0.95,2.49-1.35,3.76
		c-0.38,1.18-1.04,1.58-2.26,1.22c-2.08-0.61-4.19-1.08-6.26-1.71c-0.95-0.29-1.44,0.03-1.88,0.82c-0.6,1.08-1.05,2.22-1.24,3.43
		c-0.28,1.8,0.62,3.16,2.41,3.33c1.09,0.11,1.39,0.61,1.54,1.52c0.23,1.38,0.34,2.78,0.22,4.16c-0.63,7.32,2.27,13.33,6.87,18.72
		c1.48,1.74,2.99,3.45,4.49,5.17c0.59,0.68,1.04,1.43,1.19,2.34c0.35,2.08-0.23,2.97-2.27,3.42c-1.99,0.44-4,0.32-5.99,0.19
		c-2.66-0.18-2.37,0.06-2.63,2.28c-0.35,3-1.89,4.8-4.53,5.74c-2.71,0.97-5.2,0.29-7.18-1.79c-2.03-2.13-2.45-4.67-1.37-7.41
		c0.93-2.35,0.83-2.82-0.96-4.46c-0.86-0.79-1.85-1.53-2.45-2.49c-1.56-2.5-4.01-3.6-6.6-4.48c-8.43-2.87-17.08-4.87-25.85-6.39
		c-0.57-0.1-1.29-0.52-1.42,0.67c-0.4,3.76-0.9,7.51-1.34,11.27c-0.05,0.41-0.24,0.9,0.25,1.22c0.26,0.74,0.52,1.48,0.79,2.22
		c0.15,3.56,0.22,7.13-0.04,10.69c-0.24,0.3-0.43,0.61-0.35,1.02c-0.32,0.69-0.6,1.43-1.48,1.6c-0.46-0.02-0.86,0.13-1.2,0.43
		c-0.67,0.16-1.33,0.25-2,0c-1.7-0.49-2.68-1.57-2.72-3.39c-0.19-3.56-0.2-7.12,0-10.69c-0.22-1.1,1-1.67,1-2.68
		c-0.27-0.56,0.05-1.21-0.26-1.77c-0.03-0.3-0.05-0.61-0.08-0.91c-0.27-0.57,0.04-1.22-0.25-1.78c-0.03-0.3-0.05-0.6-0.08-0.89
		c-0.27-0.58,0.03-1.23-0.25-1.81l0.06-0.11l-0.08-0.09c-0.49-0.77,0.08-1.68-0.31-2.46c-0.02-0.18-0.04-0.37-0.06-0.55
		c-0.37-0.61,0.11-1.35-0.31-1.95c-0.11-0.03-0.22-0.06-0.33-0.09c-0.62,0.67-1.46-0.1-2.12,0.33c-0.18,0.02-0.37,0.05-0.55,0.07
		c-0.43,0.27-0.95,0.08-1.39,0.28c-2.71,0.19-5.29,1.01-7.92,1.6c-0.92,0.21-1.83,0.46-2.75,0.69c-0.36,0.4-0.86,0.33-1.31,0.41
		c-0.11,0.02-0.22,0.04-0.33,0.06c-0.33,0.1-0.58,0.49-1,0.29c-3.43,0.72-6.81,1.6-10.05,2.94c-0.55,0.85-1.51,0.79-2.33,1.06l0,0
		c-0.38,0.37-0.91,0.44-1.37,0.67c-0.82,0.07-1.4,0.58-1.96,1.1c-0.15,0.32-0.42,0.47-0.75,0.55c-0.94,0.21-1.42,0.97-1.96,1.65
		c-0.12,0.29-0.23,0.59-0.56,0.73c-0.51,0.56-0.85,1.18-0.77,1.97c-0.37,0.52,0.02,1.16-0.28,1.69c-0.14,1.16,0.7,2,0.99,3.02
		c0.23,0.89,0.19,1.77,0.03,2.66c-0.82,3.19-2.91,5.04-6.08,5.74c-0.55,0.17-1.11,0.18-1.66,0c-0.55-0.34-1.3,0.27-1.78-0.38
		c-0.39-0.25-0.84-0.37-1.23-0.61c-0.59-0.57-1.17-1.14-1.76-1.72c-0.35-0.16-0.5-0.45-0.53-0.82c-0.79-0.55-0.3-1.54-0.76-2.2
		c-0.19-0.89-0.24-1.78,0.03-2.67c0.4-1.57,1.08-2.97,2.34-4.04c0.37-0.18,0.66-0.5,1.06-0.61c0.59-0.39,1.2-0.75,1.95-0.73
		c1.11-0.17,2.23-0.3,3.34,0.03c0.43,0.07,0.5-0.14,0.37-0.49c0.29-0.58-0.02-1.26,0.27-1.84c0.26-1.63,1.01-3.03,2.06-4.29
		c0.13-0.5,0.41-0.87,0.9-1.07c1.5-1.62,3.45-2.5,5.42-3.36c0.32-0.51,0.94-0.38,1.38-0.63c3.11-1.25,6.21-2.5,9.32-3.74
		c0.56-0.35,1.2-0.45,1.84-0.57c1.72-0.56,3.45-1.13,5.17-1.69c0.8-0.24,1.56-0.63,2.42-0.66c2.31-0.59,4.63-1.18,6.94-1.77
		c0.59-0.72,1.48-0.28,2.18-0.57c0.91-0.11,1.6-0.29,1.59-1.53c-0.06-8.94-0.05-17.89-0.07-26.84c0.22-0.18,0.37-0.13,0.45,0.14
		c0.04,9.14,0.01,18.29,0.02,27.02c0.11,0.63,0.41,0.31,0.23,0.44c-0.06,0.04-0.11,0-0.12-0.12c-0.2-9.17-0.1-18.33-0.06-27.5
		c0.66-0.27,0.96-0.64,0.96-1.46c0-3.65-0.02-7.31,0-10.96c0.01-2.04,0-2.04,1.86-2.34l-0.01,0.01c0.33-1.61,0.08-3.22,0.02-4.84
		c-0.04-0.49-0.69-0.1-0.78-0.53c-0.33-0.17-0.7-0.32-0.8-0.74c-0.19-0.2-0.38-0.4-0.56-0.59c-0.32-0.15-0.46-0.43-0.54-0.76
		c-0.36-0.86-0.8-1.37-1.93-1.36c-8.73,0.07-17.47,0.05-26.21,0.09c-0.9,0-1.59-0.58-2.43-0.65c-0.34-0.33-0.9-0.24-1.22-0.62
		c-0.41-0.44-1.14-0.45-1.43-1.06c-0.18-0.21-0.44-0.34-0.59-0.57c-0.95-0.72-1.49-1.75-2.06-2.76c-0.73-0.34-0.73-1.08-0.92-1.71
		c-0.62-1.27-1.09-2.59-1.34-3.99c-0.39-0.4,0.03-0.98-0.32-1.39c-0.62-0.92-0.08-2-0.41-2.96c-0.27-0.7,0.05-1.46-0.25-2.15
		c-0.03-0.73-0.05-1.46-0.08-2.19c-0.2-2.56-0.19-5.12,0-7.68c0.02-0.84,0.05-1.67,0.07-2.51c0.36-1.04-0.06-2.13,0.26-3.17
		c0.03-0.53,0.05-1.06,0.08-1.59c0.36-0.89-0.05-1.86,0.25-2.76c0.03-0.64,0.06-1.27,0.09-1.91c0.21-1.32,0.16-2.67,0.3-4
		c-0.94-0.56-1.29-1.51-1.66-2.45c-0.44-1.26,0.09-2.6-0.31-3.86c0.17-0.84,0.02-1.67-0.07-2.5c-0.31-0.91,0.09-1.89-0.25-2.79
		c-0.03-0.41-0.05-0.81-0.08-1.22c-0.3-0.67,0.07-1.43-0.26-2.1c-0.02-0.3-0.05-0.61-0.07-0.91c-0.29-0.55,0.05-1.2-0.26-1.75
		c-0.83-5.81-2.04-11.56-3.89-17.11c-2.03-6.08-4.45-12.02-8.05-17.4c-0.54-0.81-1-1.67-1.49-2.5c-0.37-0.25-0.66-0.53-0.33-1.01
		c0.07-1.48,0.91-2.52,2.22-2.89c1.69-0.47,3.47-0.64,4.91,0.81c0.33,0.34,0.61,0.72,0.92,1.08c0.35,0.14,0.6,0.37,0.64,0.77
		c1.99,3.43,3.98,6.86,5.97,10.29c0.64,0.56,1.02,1.25,1.04,2.11c0.82,1.96,1.63,3.92,2.45,5.88c0.26,0.45,0.45,0.93,0.57,1.44
		c0.98,3.68,2.36,7.25,3.16,10.99c0.64,2.99,1.29,5.97,1.94,8.96c0.32,0.43-0.02,0.99,0.26,1.43c-0.04,1.11,0.04,2.2,0.41,3.25
		c0.23,0.58,0.08,1.2,0.24,1.79c0.03,0.41,0.06,0.81,0.1,1.22c0.24,0.66,0.02,1.36,0.22,2.02c0.04,0.55,0.07,1.1,0.11,1.65
		c0.23,0.78,0.15,1.55,0,2.33c-0.47,1.43-1.23,2.61-2.71,3.17c-0.47,0.18-0.64,0.42-0.67,0.96c-0.38,7.61-1.3,15.21-0.69,22.85
		c0.15,1.83,0.29,3.67,0.8,5.44c1.32,4.6,4.5,7.11,9.11,7.97c2.92,0.55,5.86,0.47,8.82,0.38c-0.17-2.7-1.37-4.83-3.12-6.69
		c-0.94-1-2.16-1.27-3.48-1.32c-1.89-0.08-3.77,0.38-5.67,0.15c-1.36-0.17-2-0.79-2.2-2.21c-0.7-5.03-0.16-10,0.5-14.97
		c0.2-1.52,0.17-2.95-0.26-4.43c-1.2-4.15-0.02-8.07,1.58-11.82c1.16-2.73,1.96-5.52,2.67-8.37c0.2-0.81,0.41-1.61,0.62-2.42
		c0.3-0.29-0.01-0.75,0.29-1.04c0.11-0.62,0.01-1.28,0.41-1.83c0.21-0.72,0.01-1.55,0.57-2.17c0.44-0.57-0.26-1.39,0.43-1.9
		c0.06-0.85,0.19-1.69,0.61-2.45c0.58-2.72,1.11-5.46,1.76-8.17c0.83-3.49,1.75-6.96,2.64-10.44c0.18-0.71,0.43-1.39,0.65-2.09
		c0.17-0.2,0.05-0.51,0.26-0.7c1.45-5.03,3.44-9.83,6.08-14.36c0.12-0.29,0.27-0.56,0.58-0.69c0.6-0.86,1.19-1.73,1.79-2.59
		c0.11-0.5,0.39-0.87,0.86-1.09c0.11-0.04,0.16-0.12,0.14-0.24c0.14-0.64,0.63-1,1.11-1.36c0.08-0.1,0.15-0.2,0.23-0.3
		c0.08-0.33,0.23-0.61,0.56-0.75c1.26-1.13,2-2.74,3.41-3.73c0.28-0.63,0.73-1.08,1.41-1.25c1.42-1.25,2.85-2.5,4.27-3.75
		c0.3-0.48,0.79-0.73,1.27-0.97c0.58-0.46,1.16-0.91,1.74-1.37c0.53-0.59,1.22-0.95,1.92-1.3c0.14-0.12,0.29-0.25,0.43-0.37
		c0.37-0.14,0.62-0.49,1.03-0.56c0.89-0.77,1.88-1.36,2.98-1.8c0.17-0.51,0.71-0.35,1.03-0.59l-0.01,0
		c0.56-0.56,1.23-0.88,2.01-0.98c4.82-2.05,9.91-3.13,15.03-4.11c0.54-0.28,1.18,0.08,1.71-0.27c0.32-0.02,0.64-0.04,0.96-0.06
		c0.92-0.31,1.9,0.09,2.82-0.26c1.56,0.41,2.39-0.04,2.57-1.79c0.14-1.31,0.64-2.57,0.98-3.86c0.35-0.66-0.04-1.41,0.26-2.07
		c0.14-1.23,0.14-2.46,0-3.69c-0.19-1.22-0.19-2.44,0-3.67c0.27-0.86-0.19-1.94,0.74-2.61c-0.02-0.75,0.95-1.19,0.63-2.03
		c-0.2-0.85,0.62-1,1-1.46c0.24-0.47,0.67-0.67,1.13-0.82c0.02-0.29-0.3-0.13-0.38-0.28c-0.04-0.05-0.08-0.09-0.13-0.14
		c0.12-0.14,0.25-0.27,0.37-0.41c0.27-0.3,0.67-0.31,1.04-0.48c-0.48,0.09-0.96,0.32-1.29-0.24c0.79-0.86,1.55-1.74,2.61-2.29
		c0.37-0.64,1.07-0.7,1.66-0.95c0.67-0.35,1.34-0.71,2.02-1.06c0.7-0.59,1.53-0.07,2.27-0.28c0.34-0.1,0.06-0.91,0.73-0.64
		c0.06,0.34,0.36,0.37,0.6,0.47c0.29,0.04,0.67,0.52,0.81-0.17c0.01-0.64,0.56-0.55,0.94-0.69c0.55-0.29,1.19,0.06,1.73-0.27
		c0.31-0.02,0.63-0.04,0.94-0.07c1.89-0.2,3.78-0.19,5.67,0c0.32,0.02,0.65,0.04,0.97,0.06c0.52,0.36,1.21-0.14,1.7,0.36
		c0.58,0.59,1.32,0.17,1.97,0.31c0.26,0.32,0.82-0.09,1.01,0.4c1.12,0.43,2.23,0.85,3.35,1.28c0.3-0.08-0.09,0.59,0.37,0.34
		c2.05,0.16,1.55,1.44,0.96,2.78c1.73-0.89,2.23-0.78,4.01,0.69c-0.76,0.84-0.76,0.84,0.04,2.18c-0.12,0.63,0.39,0.56,0.75,0.65
		c0.4,0.07,0.74,0.23,0.94,0.61c-0.29,0.44-0.58,0.87-0.91,1.37c0.12,0.17,0.47,0.07,0.78,0.08c0.77,0.14,0.32,1,0.78,1.32
		c-0.08,0.51,1.16,0.08,0.65,0.9c-0.34,0.25-0.79,0.47-0.29,0.98c0.3,0.38,0.6,0.76,0.91,1.13c0.29,0.2,0.29,0.4,0,0.6
		c-0.74-0.33-1.49-0.65-2.23-0.98c-0.4,0.02-1.03-0.53-1.06,0.42c0.25,0.98,0.49,1.96,0.74,2.94c0.2,0.78,0.18,1.55,0.01,2.33
		c-0.12,1.59-0.94,3.07-0.78,4.71c0.42,0.25,1.03-0.12,1.37,0.4c1.25,1.06,0,2.07-0.25,2.92c-0.64,2.18-1.87,4.14-0.49,6.57
		c0.79,1.39,0.09,2.42-1.56,3.17c-0.3,0.33-0.74,0.07-1.08,0.25c-0.2,0.02-0.4,0.04-0.59,0.06c-0.25,0.33-0.68,0.1-0.97,0.31
		c0,0.78-0.12,1.48-1.03,1.7c-0.53,0.32-0.3,0.87-0.39,1.32c-1.7,2.83-1.37,6.94-5.29,8.37c-0.78,0.19-1.56,0.21-2.33-0.01
		c-2.12-0.36-3.97-1.4-5.86-2.51c-0.14,0.7-0.26,1.26-0.37,1.83c0.08,1.32,0.06,2.65,0.01,3.97c0.1,0.81,0.11,1.64,0.57,2.36
		c0.41,0.74,0.42,1.59,0.62,2.38c-0.03,1.04,0.44,1.91,0.9,2.79c1.4,2.69,2.33,5.54,3.15,8.45c0.62,2.19,1.39,4.35,2.93,6.11
		c0.37,0.09,0.6,0.33,0.7,0.69c1.8,1.68,4.03,2,6.37,2c1.1,0.25,2.24,0.02,3.34,0.25c0.34,0.02,0.67,0.03,1.01,0.05
		c0.78,0.12,1.56,0.13,2.34,0.29c0.3,0.03,0.6,0.05,0.89,0.08c0.56,0.3,1.22-0.03,1.78,0.26c0.2,0.02,0.39,0.04,0.59,0.06
		c0.55,0.33,1.21-0.05,1.75,0.29c2.62,0.66,5.26,1.21,7.96,1.38c0.54,0.34,1.18-0.02,1.73,0.27c0.31,0.02,0.63,0.04,0.94,0.07
		c1,0.39,2.07-0.08,3.07,0.28c0.39,0.02,0.77,0.04,1.16,0.06c0.7,0.31,1.48-0.03,2.18,0.27c0.31,0.02,0.62,0.04,0.93,0.06
		c1.42,0.25,2.84,0.22,4.26,0c2.48-0.02,4.84-0.64,7.18-1.37c0.58-0.62,1.4-0.41,2.1-0.63c1.42-0.47,2.83-0.94,4.25-1.41
		c0.4-0.72,1.19-0.31,1.74-0.61c0.11,0.05,0.2,0.03,0.28-0.06c1.24-0.09,2.54-0.55,3.62,0.5c0.83,0.32,1.67,0.6,2.33,1.23
		c0.48,0.19,0.77,0.56,0.92,1.04C232.04,206.79,232.97,207.43,233.9,208.08z"/>
	<path class="st1" d="M187.46,271.11c3.12-4.31,4.38-9.14,4.07-14.43c-0.06-1.1-0.44-2.04-1.08-2.92c-1.01-1.39-2-2.8-3-4.2
		c-0.26-0.27-0.2-0.62-0.2-0.94c0-5.92,0-11.84,0-17.76c0-0.32-0.08-0.67,0.23-0.92c0.55-0.05,1.1-0.13,1.65-0.13
		c18.05-0.01,36.1,0.01,54.15-0.03c1.23,0,1.68,0.21,1.68,1.59c-0.04,45.29-0.04,90.58-0.04,135.86c0,0.45-0.03,0.89-0.04,1.34
		c-0.42,0.42-0.95,0.23-1.43,0.23c-17.8,0.01-35.6,0.01-53.4,0.01c-0.44,0-0.89,0.1-1.31-0.14c-0.42-0.18-0.96,0.1-1.3-0.36
		c-0.37-0.5-0.19-1.08-0.19-1.62c-0.01-31.32-0.01-62.63,0-93.95C187.26,272.19,187.08,271.61,187.46,271.11z"/>
	<path class="st1" d="M158.51,283.32c-0.26,1.45-1.07,2.66-1.75,3.9c-2.98,5.52-5.94,11.04-8.15,16.93
		c-1.54,4.09-4.04,7.53-7.28,10.43c-4.31,3.86-7.7,8.46-10.93,13.2c-0.68,1-0.85,1.97-0.32,3.12c1.63,3.52,4.52,6.02,6.97,8.89
		c0.1,0.12,0.31,0.31,0.39,0.27c2.23-1.02,1.48,1.41,2.49,1.94c-0.93,0.35-1.58-0.09-2.23-0.33c-6.83-2.51-13.81-4.52-20.9-6.12
		c-1.15-0.26-1.36-0.71-1.36-1.76c0.03-8.18-0.02-16.36,0.03-24.54c0.01-1.36,0-2.43-1.66-2.6c-0.4-1.97-0.12-3.97-0.17-5.95
		c-0.05-2.22-0.06-4.44,0.01-6.66c0.03-0.94-0.36-1.29-1.19-1.36c-0.9-1.07-0.17-2.33-0.42-3.47c-0.3-1.36,0.44-2.09,1.5-2.74
		c1.17-0.72,1.57-2.09,2.36-3.13c0.37-0.37,0.84-0.21,1.27-0.21c13.35-0.01,26.7-0.01,40.05,0
		C157.66,283.13,158.12,283,158.51,283.32z"/>
	<path class="st1" d="M150.52,242.13c-0.07,2.04-0.54,4.31-1.48,6.48c-0.32,0.74-0.74,0.94-1.5,0.95
		c-6.4,0.14-12.78,0.33-19.12,1.36c-2.69,0.43-2.99,0.17-4.2-2.3c-0.48-0.99-1.35-1.6-2.18-2.26c-2.53-1.99-2.72-3.69-0.68-6.21
		c0.52-0.65,1.08-1.27,1.61-1.91c1.6-1.9,2.69-3.96,3.03-6.53c0.43-3.3,1.41-6.41,3.47-9.23c2.43-3.32,3.91-7.21,5.43-11.02
		c0.2-0.51,0.41-1.04,0.72-1.49c1.25-1.8,2.34-2.01,3.99-0.56c2.64,2.31,5.16,4.74,7.75,7.1c0.42,0.39,0.53,0.7,0.27,1.28
		c-2.2,4.86-1.42,9.65,0.46,14.39C149.34,235.29,150.45,238.42,150.52,242.13z"/>
	<path class="st1" d="M180.89,223.97c-0.59,0.59-0.68,1.38-0.83,2.12c-0.14,0.69-0.3,0.96-1.09,1.4c-1.38,0.77-0.35,2.66-0.59,4.05
		c-0.15,0.87,0.48,0.8,1.05,0.8c1,0.01,2,0.05,3,0.07c0.08,0.14,0.2,0.25,0.2,0.44c0.02,5.54,0,11.07,0.01,16.61
		c0,0.25-0.07,0.42-0.29,0.53c-5.2-1.1-10.49-1.34-15.76-1.59c-3.78-0.18-7.57-0.04-11.54-0.04c0.53-1.81,1.01-3.21,1.33-4.64
		c0.81-3.54,0.28-6.96-1.11-10.28c-0.71-1.69-1.48-3.36-2.13-5.06c-1.49-3.85-1.43-7.71,0.11-11.55c0.59-0.11,0.74,0.43,1.01,0.72
		c1.33,1.42,2.6,2.9,3.93,4.32c2.07,2.21,4.41,3.49,7.57,2.35c1.29-0.47,2.65,0.17,3.98,0.1c3-0.15,6-0.27,9.01-0.4
		C179.47,223.76,180.18,223.68,180.89,223.97z"/>
</g>
</svg>
