<?xml version="1.0" encoding="utf-8"?>
<!-- Generator: Adobe Illustrator 25.0.0, SVG Export Plug-In . SVG Version: 6.00 Build 0)  -->
<svg version="1.1" id="Layer_1" xmlns="http://www.w3.org/2000/svg" xmlns:xlink="http://www.w3.org/1999/xlink" x="0px" y="0px"
	 viewBox="0 0 320 500" style="enable-background:new 0 0 320 500;" xml:space="preserve">
<style type="text/css">
	.st0{fill:#0E838E;}
</style>
<g>
	<path class="st0" d="M238.44,237.56c-1.23,0.02-2.46,0.1-3.69,0.06c-3.09-0.09-5.89,0.73-8.29,2.68c-1.1,0.89-1.41,0.65-1.5-0.64
		c-0.16-2.09-0.21-4.22-0.61-6.27c-1.24-6.31-4.99-10.63-10.88-13.14c-0.58-0.24-1.17-0.44-1.79-0.68
		c19.88-24.35,14.47-57.51-6.29-75.16c-20.44-17.38-50.27-17.13-70.29,0.49c-20.39,17.95-25.26,50.57-5.67,74.68
		c-10.48,3.36-13.56,11.47-13.34,21.39c-0.93,0.02-1.11-0.43-1.39-0.73c-2.59-2.72-5.76-4.04-9.52-3.98
		c-5.73,0.09-11.45-0.34-17.18,0.05c-0.83,0.06-1.14-0.32-1.5-0.91c-5.41-8.93-9.17-18.53-11.52-28.69
		c-0.18-0.76,0.03-1.13,0.61-1.62c4.67-3.93,8.92-8.29,13.15-12.66c4.6-4.76,4.47-12.1-0.18-16.9c-4.13-4.27-8.14-8.67-12.62-12.59
		c-0.64-0.56-0.57-0.99-0.4-1.67C78,151.2,82.09,141.82,87.5,133c0.48-0.78,0.97-0.91,1.91-0.87c6.08,0.2,12.18,0.51,18.26,0.3
		c6.64-0.22,11.5-5.42,11.57-12.04c0.07-5.94,0.64-11.88,0.02-17.81c-0.09-0.85,0.29-1.16,0.88-1.51
		c8.94-5.38,18.5-9.21,28.68-11.51c0.69-0.16,1.13-0.12,1.66,0.51c3.91,4.68,8.31,8.9,12.64,13.18c4.55,4.49,11.9,4.58,16.56,0.18
		c4.42-4.18,8.94-8.27,12.92-12.9c0.55-0.64,1.01-0.64,1.67-0.47c10.12,2.54,19.6,6.57,28.44,12.11c0.59,0.37,0.92,0.71,0.83,1.54
		c-0.65,6.21-0.43,12.46-0.34,18.68c0.09,6.18,5.24,11.23,11.72,11.47c6.01,0.22,12.03,0.08,18.05,0c0.8-0.01,1.16,0.17,1.53,0.78
		c5.41,9.01,9.27,18.64,11.59,28.89c0.16,0.7-0.01,1.03-0.52,1.45c-4.66,3.82-8.75,8.25-13.01,12.49
		c-4.68,4.66-4.9,11.87-0.43,16.71c4.13,4.47,8.29,8.93,12.89,12.93c0.83,0.72,0.62,1.29,0.43,2.06
		c-2.49,9.91-6.51,19.15-11.82,27.87c-1.18,1.93-2.65,0.65-4.02,0.64c0.19-0.05,0.23-0.3,0.14-0.3
		C245.98,237.51,242.2,237.12,238.44,237.56z"/>
	<path class="st0" d="M155.31,357.72c-9.46-0.17-18.2-8.7-18.62-18.21c-0.36-8.12-0.71-16.23-0.97-24.35
		c-0.05-1.55-0.48-2.8-1.48-3.94c-5.35-6.16-7.88-13.22-7.88-21.49c0-13.85-0.33-27.71,0.12-41.56c0.14-4.2,0.59-8.39,1.04-12.57
		c0.27-2.54,1.81-4.26,4.2-5.07c6.02-2.06,12.08-3.99,18.1-6.08c1.64-0.57,2.71-0.2,3.77,1.1c4.77,5.84,9.18,11.96,13.69,18
		c2.52,3.37,3.98,3.37,6.48,0.03c4.47-5.98,8.85-12.03,13.54-17.84c1.15-1.43,2.3-1.89,4.12-1.25c5.94,2.08,11.93,3.98,17.88,6.03
		c2.84,0.98,4.04,3.14,4.36,6.12c1.81,17.08,0.86,34.2,1.08,51.3c0.12,9.09-2.23,16.99-8.31,23.76c-0.76,0.84-1.03,1.83-1.07,2.98
		c-0.29,8.12-0.64,16.23-0.99,24.35c-0.43,9.95-8.93,18.48-18.6,18.69c-1.28-0.44-2.56,0.06-3.84,0.04
		c-8.74-0.17-17.49,0.22-26.23-0.21C155.57,357.53,155.44,357.65,155.31,357.72z"/>
	<path class="st0" d="M170.75,216.01c-15.33,0.06-29.31-13.73-29.33-28.92c-0.01-15.77,13.29-29.05,29.15-29.09
		c15.67-0.04,29.05,13.28,29.07,28.94C199.65,202.19,185.98,215.95,170.75,216.01z"/>
	<path class="st0" d="M155.31,357.72c0.5-0.6,1.19-0.42,1.82-0.42c8.94-0.01,17.88-0.01,26.83,0c0.63,0,1.32-0.18,1.82,0.42
		c-1.14,0.1-2.29,0.28-3.43,0.29c-7.93,0.03-15.87,0.03-23.8,0C157.45,358,156.38,357.82,155.31,357.72z"/>
	<path class="st0" d="M238.44,237.56c1.64-0.84,3.39-0.3,5.08-0.37c2.49-0.1,4.99-0.03,7.5,0.25c-0.47,0.08-0.95,0.16-1.42,0.24
		C245.88,237.64,242.16,237.6,238.44,237.56z"/>
</g>
</svg>
