<?xml version="1.0" encoding="utf-8"?>
<!-- Generator: Adobe Illustrator 25.0.0, SVG Export Plug-In . SVG Version: 6.00 Build 0)  -->
<svg version="1.1" id="Layer_1" xmlns="http://www.w3.org/2000/svg" xmlns:xlink="http://www.w3.org/1999/xlink" x="0px" y="0px"
	 viewBox="0 0 320 500" style="enable-background:new 0 0 320 500;" xml:space="preserve">
<style type="text/css">
	.st0{fill:#0E838E;}
	.st1{fill:#FFFFFF;}
	.st2{fill:#FEFEFE;}
</style>
<g>
	<path class="st0" d="M187.2,320.94c-7.11,0-14.23,0.01-21.34,0c-3.76-0.01-5.34-1.57-5.42-5.39c-0.06-3.17-0.35-6.32-0.73-9.46
		c-0.12-0.95-0.41-1.23-1.42-1.27c-2.49-0.1-4.14-1.39-4.59-3.3c-0.48-2.06,0.41-3.81,2.89-4.97c1.42-0.66,0.44-1.51,0.29-2.05
		c-1.98-7-5.12-13.48-8.93-19.65c-4.43-7.19-9.48-13.95-14.42-20.8c-9.77-13.54-14.43-28.64-13.66-45.3
		c1.42-30.52,21.74-56.61,50.2-64.35c29.68-8.07,60.19,5.03,75.61,32.14c6.88,12.09,10.01,25.13,9.31,39
		c-0.47,9.12-3.49,17.56-7.75,25.58c-4.66,8.78-10.65,16.7-15.99,25.04c-5.53,8.65-10.74,17.45-13.59,27.42
		c-0.44,1.53-0.94,2.67,1.31,3.32c1.88,0.54,2.55,2.38,2.25,4.3c-0.31,2.02-1.64,3.53-3.65,3.49c-2.41-0.05-2.48,1.37-2.62,2.99
		c-0.25,2.87-0.51,5.75-0.75,8.62c-0.27,3.21-1.79,4.64-5.03,4.65C201.86,320.95,194.53,320.94,187.2,320.94z"/>
	<path class="st0" d="M88.44,300.08c0-3.45,0-6.9,0-10.35c0-4.85-1.96-6.89-6.85-7.11c-9.65-0.45-17.08-8.5-16.68-18.14
		c0.12-3.01,1.27-5.72,2.78-8.3c5.28-9.03,10.37-18.18,15.87-27.08c2.68-4.33,2.39-8.99,2.86-13.62
		c3.97-38.82,21.27-69.42,55.65-89.15c13.88-7.97,29.11-11.59,45.15-11.6c2.41,0,4.16,1.48,4.45,3.63c0.27,2.04-0.9,3.95-2.88,4.6
		c-0.52,0.17-1.1,0.21-1.65,0.22c-32.29,0.82-56.85,15.59-74.79,41.88c-9.75,14.28-15.19,30.26-17.07,47.45
		c-0.46,4.26-0.72,8.54-1.22,12.8c-0.29,2.45-1.29,4.7-2.55,6.85c-5.46,9.33-10.89,18.67-16.32,28.02
		c-4.06,6.99-0.44,13.53,7.71,13.95c8.2,0.43,13.98,6.45,14.03,14.68c0.04,6.48-0.02,12.96,0.01,19.44
		c0.08,14.54,11.51,26.98,25.97,28.43c4.22,0.43,8.44,0.13,12.66,0.28c8.81,0.3,17.12,2.26,24.15,7.91
		c6.24,5.02,8.89,11.77,8.86,19.65c-0.01,2.51-1.67,4.19-3.99,4.28c-2.37,0.09-4.17-1.38-4.44-3.85c-0.22-2.02-0.17-4.07-0.79-6.04
		c-2.25-7.12-7.8-10.29-14.46-12.12c-4.03-1.11-8.15-1.46-12.32-1.34c-6.63,0.18-13.19-0.05-19.53-2.42
		c-14.86-5.54-24.57-19.32-24.62-35.15C88.43,305.29,88.44,302.69,88.44,300.08z"/>
	<path class="st0" d="M187.46,328.03c5.07,0,10.13-0.02,15.2,0.01c3.1,0.02,4.93,1.66,4.89,4.27c-0.04,2.58-1.93,4.23-5,4.23
		c-10.06,0.02-20.12,0.02-30.18,0c-2.67,0-4.28-1.11-4.82-3.2c-0.51-1.98,0.3-3.83,2.07-4.82c0.91-0.52,1.89-0.48,2.86-0.48
		C177.47,328.02,182.47,328.03,187.46,328.03z"/>
	<path class="st0" d="M168.88,381.14c-0.06,2.39-1.99,4.2-4.39,4.11c-2.28-0.08-4.08-1.95-4.07-4.24c0.01-2.37,1.93-4.25,4.3-4.22
		C167.1,376.83,168.94,378.75,168.88,381.14z"/>
	<path class="st1" d="M187.09,296.33c-6.41,0-12.82,0-19.22,0c-0.92,0-1.69,0.12-2-1.22c-2.73-11.91-8.64-22.3-15.55-32.19
		c-3.74-5.36-7.65-10.6-11.34-16c-22.49-32.97-7.9-79.44,29.16-92.98c26.5-9.68,56.4,1.87,70.41,27.19
		c5.63,10.18,8.38,21.1,8.04,32.72c-0.25,8.76-3.28,16.73-7.42,24.32c-4.32,7.91-9.72,15.13-14.6,22.67
		c-6.08,9.39-11.74,18.97-14.91,29.81c-0.16,0.54-0.32,1.07-0.46,1.61c-1.09,4.06-1.08,4.06-5.19,4.06
		C198.36,296.33,192.73,296.33,187.09,296.33z"/>
	<path class="st2" d="M187.45,304.85c5.9,0,11.81,0.03,17.71-0.02c1.23-0.01,1.82,0.13,1.41,1.57c-0.29,1-0.27,2.08-0.41,3.13
		c-0.39,2.91-0.39,2.91-3.43,2.91c-10.61,0-21.23-0.02-31.84,0.02c-1.34,0-2.23-0.05-2.18-1.81c0.05-1.86-1.04-4.37-0.19-5.43
		c0.95-1.17,3.55-0.33,5.44-0.35C178.46,304.81,182.95,304.85,187.45,304.85z"/>
	<path class="st0" d="M236.47,211.71c0,1.27,0.02,2.54,0,3.8c-0.08,4.18-2.57,7.41-6.65,8.35c-1.33,0.31-2.07,0.87-2.29,2.2
		c-0.07,0.41-0.24,0.81-0.43,1.18c-1.36,2.54-2.07,4.79-0.38,7.8c1.6,2.84,0.54,6.06-1.79,8.52c-1.84,1.94-3.73,3.84-5.68,5.68
		c-3.05,2.88-7.15,3.28-10.63,0.92c-1-0.68-1.71-0.67-2.63-0.13c-0.48,0.28-0.98,0.58-1.51,0.73c-2.73,0.79-4.75,1.91-5.64,5.13
		c-0.83,3-3.6,4.63-6.83,4.77c-2.95,0.13-5.92,0.15-8.87,0.02c-4.06-0.18-7.19-2.95-7.89-6.92c-0.17-0.97-0.42-1.55-1.44-1.71
		c-0.48-0.07-0.95-0.28-1.39-0.49c-2.74-1.32-5.17-2.4-8.43-0.46c-2.85,1.69-6.03,0.3-8.46-2c-1.79-1.69-3.51-3.47-5.23-5.23
		c-3.15-3.22-3.63-7.43-1.1-11.13c0.59-0.87,0.57-1.45,0.12-2.24c-0.34-0.61-0.68-1.24-0.88-1.91c-0.79-2.67-1.92-4.57-5.08-5.44
		c-3.16-0.87-4.72-3.87-4.87-7.22c-0.13-2.74-0.09-5.49-0.02-8.24c0.1-4,2.78-7.21,6.75-8.06c1.16-0.25,1.86-0.72,2.1-1.9
		c0.13-0.61,0.38-1.21,0.67-1.76c1.2-2.36,1.94-4.4,0.29-7.22c-1.69-2.89-0.72-6.19,1.65-8.73c1.82-1.96,3.73-3.84,5.67-5.68
		c2.91-2.76,7.36-3.2,10.68-0.96c0.98,0.66,1.67,0.72,2.59,0.12c0.4-0.26,0.88-0.44,1.34-0.6c2.77-0.92,5.03-1.95,5.94-5.4
		c0.82-3.07,3.76-4.59,7.1-4.65c2.75-0.05,5.49-0.05,8.24-0.01c4.07,0.05,7.44,2.82,8.16,6.85c0.19,1.09,0.51,1.65,1.59,1.83
		c0.47,0.08,0.93,0.31,1.38,0.5c2.67,1.18,4.96,2.46,8.2,0.41c2.73-1.73,6.03-0.42,8.48,1.89c1.84,1.74,3.62,3.55,5.38,5.37
		c3.14,3.24,3.55,7.39,1,11.14c-0.53,0.79-0.55,1.31-0.13,2.05c0.38,0.67,0.72,1.37,0.98,2.09c0.89,2.47,1.75,4.51,4.92,5.33
		c3.27,0.85,4.8,3.92,5,7.36C236.54,209.03,236.47,210.38,236.47,211.71z"/>
	<path class="st1" d="M219.17,185.85c-0.96,0.83-1.64,1.33-2.22,1.94c-1.87,1.94-2.08,3.56-0.68,5.88
		c1.93,3.21,3.42,6.57,4.27,10.24c0.69,2.96,1.91,3.97,5.07,3.91c1.89-0.04,2.74,0.48,2.4,2.45c-0.08,0.48-0.01,0.98-0.01,1.48
		c0,3.65,0,3.64-3.55,3.99c-1.88,0.19-3.16,1.21-3.61,3.02c-1.02,4.12-2.61,7.97-4.81,11.61c-1.21,1.98-0.93,3.71,1.04,5.45
		c1.72,1.52,1.7,2.59-0.18,3.77c-0.17,0.11-0.3,0.29-0.45,0.44c-0.96,0.93-1.78,2.34-2.92,2.66c-1.17,0.33-1.8-1.46-2.82-2.12
		c-1.48-0.96-3.08-1.17-4.58-0.26c-3.63,2.19-7.44,3.84-11.59,4.8c-2.24,0.51-3.32,2.21-3.18,5.03c0.09,1.81-0.51,2.4-2.22,2.1
		c-0.41-0.07-0.84-0.02-1.27-0.03c-1.27-0.01-2.75,0.39-3.75-0.14c-1.2-0.63-0.24-2.29-0.54-3.47c-0.49-1.95-1.64-3.21-3.64-3.64
		c-3.74-0.8-7.19-2.3-10.45-4.27c-2.44-1.48-4.25-1.37-6.18,0.81c-1.42,1.6-2.38,1.53-3.49-0.12c-0.12-0.17-0.29-0.31-0.43-0.46
		c-0.98-1.01-2.43-1.87-2.82-3.07c-0.42-1.3,1.55-1.83,2.2-2.93c0.96-1.61,1.06-3.17,0.05-4.76c-2.17-3.41-3.62-7.1-4.62-11
		c-0.67-2.62-1.91-3.53-5-3.4c-1.88,0.08-2.62-0.46-2.27-2.34c0.06-0.34,0.01-0.7,0.02-1.05c0.02-1.34-0.37-2.9,0.18-3.95
		c0.67-1.27,2.42-0.33,3.67-0.61c1.77-0.39,2.9-1.39,3.32-3.12c1-4.05,2.56-7.84,4.74-11.41c1.31-2.14,0.92-3.79-1.36-5.94
		c-1.16-1.1-1.42-1.88,0.01-2.84c0.34-0.23,0.6-0.59,0.9-0.89c0.95-0.94,1.76-2.33,2.9-2.7c1.38-0.44,1.89,1.51,2.98,2.16
		c1.59,0.93,3.23,1.04,4.79,0.07c3.48-2.18,7.19-3.72,11.2-4.63c2.24-0.51,3.45-2.24,3.28-4.96c-0.12-1.93,0.54-2.51,2.33-2.21
		c0.41,0.07,0.84,0.01,1.27,0.01c1.27,0.01,2.78-0.39,3.73,0.16c0.97,0.56,0.21,2.2,0.43,3.33c0.37,1.88,1.41,3.25,3.32,3.68
		c3.94,0.88,7.59,2.4,11.02,4.53c2.03,1.26,4.12,1.1,5.69-0.76c1.58-1.87,2.59-1.59,4,0.11
		C216.38,183.64,217.75,184.59,219.17,185.85z"/>
	<path class="st0" d="M187.37,188.53c12.7-0.07,23.27,10.27,23.35,22.85c0.08,13.11-10.17,23.61-23.17,23.72
		c-12.67,0.11-23.29-10.4-23.35-23.12C164.15,199.02,174.43,188.6,187.37,188.53z"/>
	<path class="st1" d="M187.68,197.06c8.23,0.12,14.69,6.82,14.55,15.1c-0.13,7.92-6.96,14.53-14.89,14.41
		c-8.2-0.12-14.77-6.86-14.66-15.07C172.79,203.45,179.54,196.94,187.68,197.06z"/>
</g>
</svg>
